<?xml version="1.0" encoding="UTF-8" standalone="no"?>
<!DOCTYPE svg PUBLIC "-//W3C//DTD SVG 1.1//EN" "http://www.w3.org/Graphics/SVG/1.1/DTD/svg11.dtd">
<svg version="1.1" xmlns="http://www.w3.org/2000/svg" xmlns:xlink="http://www.w3.org/1999/xlink" preserveAspectRatio="xMidYMid meet" viewBox="0 0 640 640" width="640" height="640"><defs><path d="M320 320C312.5 320 307.81 320 305.94 320C260.42 320 218.12 296.54 194.02 257.92C183.24 240.65 183.29 240.73 170.92 220.91C151.75 190.2 118.11 171.54 81.91 171.54C77.66 171.54 67.02 171.54 50 171.54" id="bRABVU0P"></path><path d="M50 469.86C60.82 469.86 67.58 469.86 70.29 469.86C108.86 469.86 145.26 452.05 168.93 421.6C184.73 401.28 193.67 389.78 209.23 369.76C233.64 338.36 271.17 320 310.93 320C312.14 320 315.17 320 320 320" id="a49dffvJON"></path><path d="M320 320C325.76 320 329.36 320 330.81 320C378.69 320 423.54 296.57 450.89 257.26C462.82 240.11 460.41 243.57 473.7 224.47C496.78 191.31 534.61 171.54 575.01 171.54C577.01 171.54 582.01 171.54 590 171.54" id="b2w5LmDJPJ"></path><path d="M598.8 469.86C596.3 469.86 594.73 469.86 594.11 469.86C550.03 469.86 508.06 450.97 478.84 417.97C461.49 398.37 453.28 389.1 435.4 368.91C407.86 337.81 368.3 320 326.76 320C325.86 320 323.6 320 320 320" id="a1RbUNAD82"></path><path d="M590 320L50 320" id="b3i89jDniL"></path><path d="M260.15 56.36C260.15 56.78 260.15 57.12 260.15 57.12C260.15 57.12 260.15 56.78 260.15 56.36C260.15 55.95 260.15 55.61 260.15 55.61C260.15 55.76 260.15 55.95 260.15 56.36Z" id="b6nCexFj"></path><path d="M100 171.54C100 199.13 77.6 221.54 50 221.54C22.4 221.54 0 199.13 0 171.54C0 143.94 22.4 121.54 50 121.54C77.6 121.54 100 143.94 100 171.54Z" id="f1KseMrj1Q"></path><path d="M100 469.86C100 497.46 77.6 519.86 50 519.86C22.4 519.86 0 497.46 0 469.86C0 442.26 22.4 419.86 50 419.86C77.6 419.86 100 442.26 100 469.86Z" id="aGRpl1IrJ"></path><path d="M100 320C100 347.6 77.6 370 50 370C22.4 370 0 347.6 0 320C0 292.4 22.4 270 50 270C77.6 270 100 292.4 100 320Z" id="b2pwHwwO0q"></path><path d="M640 469.86C640 497.46 617.6 519.86 590 519.86C562.4 519.86 540 497.46 540 469.86C540 442.26 562.4 419.86 590 419.86C617.6 419.86 640 442.26 640 469.86Z" id="d36M5lq5Au"></path><path d="M640 320C640 347.6 617.6 370 590 370C562.4 370 540 347.6 540 320C540 292.4 562.4 270 590 270C617.6 270 640 292.4 640 320Z" id="jEKu8zc7Z"></path><path d="M640 171.54C640 199.13 617.6 221.54 590 221.54C562.4 221.54 540 199.13 540 171.54C540 143.94 562.4 121.54 590 121.54C617.6 121.54 640 143.94 640 171.54Z" id="gdjoE6GRk"></path><path d="M280 280L360 280L360 360L280 360L280 280Z" id="bwdxIH7Bw"></path></defs><g><g><g><g><use xlink:href="#bRABVU0P" opacity="1" fill-opacity="0" stroke="#000000" stroke-width="30" stroke-opacity="1"></use></g></g><g><g><use xlink:href="#a49dffvJON" opacity="1" fill-opacity="0" stroke="#000000" stroke-width="30" stroke-opacity="1"></use></g></g><g><g><use xlink:href="#b2w5LmDJPJ" opacity="1" fill-opacity="0" stroke="#000000" stroke-width="30" stroke-opacity="1"></use></g></g><g><g><use xlink:href="#a1RbUNAD82" opacity="1" fill-opacity="0" stroke="#000000" stroke-width="30" stroke-opacity="1"></use></g></g><g><g><use xlink:href="#b3i89jDniL" opacity="1" fill-opacity="0" stroke="#000000" stroke-width="30" stroke-opacity="1"></use></g></g><g><use xlink:href="#b6nCexFj" opacity="1" fill="#0b782d" fill-opacity="1"></use></g><g><use xlink:href="#f1KseMrj1Q" opacity="1" fill="#000000" fill-opacity="1"></use></g><g><use xlink:href="#aGRpl1IrJ" opacity="1" fill="#000000" fill-opacity="1"></use></g><g><use xlink:href="#b2pwHwwO0q" opacity="1" fill="#000000" fill-opacity="1"></use></g><g><use xlink:href="#d36M5lq5Au" opacity="1" fill="#000000" fill-opacity="1"></use></g><g><use xlink:href="#jEKu8zc7Z" opacity="1" fill="#000000" fill-opacity="1"></use></g><g><use xlink:href="#gdjoE6GRk" opacity="1" fill="#000000" fill-opacity="1"></use></g><g><use xlink:href="#bwdxIH7Bw" opacity="1" fill="#000000" fill-opacity="1"></use></g></g></g></svg>