<?xml version="1.0" encoding="UTF-8" standalone="no"?>
<svg
   xmlns:dc="http://purl.org/dc/elements/1.1/"
   xmlns:cc="http://creativecommons.org/ns#"
   xmlns:rdf="http://www.w3.org/1999/02/22-rdf-syntax-ns#"
   xmlns:svg="http://www.w3.org/2000/svg"
   xmlns="http://www.w3.org/2000/svg"
   xmlns:sodipodi="http://sodipodi.sourceforge.net/DTD/sodipodi-0.dtd"
   xmlns:inkscape="http://www.inkscape.org/namespaces/inkscape"
   width="300"
   height="300"
   version="1.1"
   id="svg20"
   sodipodi:docname="hierarchical.svg"
   inkscape:version="0.92.1 r15371">
  <metadata
     id="metadata26">
    <rdf:RDF>
      <cc:Work
         rdf:about="">
        <dc:format>image/svg+xml</dc:format>
        <dc:type
           rdf:resource="http://purl.org/dc/dcmitype/StillImage" />
      </cc:Work>
    </rdf:RDF>
  </metadata>
  <defs
     id="defs24" />
  <sodipodi:namedview
     pagecolor="#ffffff"
     bordercolor="#666666"
     borderopacity="1"
     objecttolerance="10"
     gridtolerance="10"
     guidetolerance="10"
     inkscape:pageopacity="0"
     inkscape:pageshadow="2"
     inkscape:window-width="912"
     inkscape:window-height="1042"
     id="namedview22"
     showgrid="false"
     inkscape:zoom="0.78666667"
     inkscape:cx="127.75424"
     inkscape:cy="150"
     inkscape:window-x="1983"
     inkscape:window-y="0"
     inkscape:window-maximized="0"
     inkscape:current-layer="svg20" />
  <g
     fill="#008"
     id="g16">
    <circle
       cx="150"
       cy="33"
       r="31"
       id="circle2" />
    <circle
       cx="72"
       cy="144"
       r="31"
       id="circle4" />
    <circle
       cx="228"
       cy="144"
       r="31"
       id="circle6" />
    <circle
       cx="33"
       cy="267"
       r="31"
       id="circle8" />
    <circle
       cx="111"
       cy="267"
       r="31"
       id="circle10" />
    <circle
       cx="189"
       cy="267"
       r="31"
       id="circle12" />
    <circle
       cx="267"
       cy="267"
       r="31"
       id="circle14" />
  </g>
  <path
     stroke="#008"
     fill="none"
     stroke-width="10"
     d="M33,267l39-123 39,123m78,0l39-123 39,123m-195-127l78-111 78,111"
     id="path18" />
  <path
     style="fill:#000000;fill-opacity:1;stroke-width:1.27118647"
     d="M 21.483051,294.8124 C 9.3347471,289.3133 3.1448844,279.90834 3.1448844,266.94915 c 0,-16.48229 10.7020646,-28.02958 28.0270316,-30.24056 l 7.079841,-0.90351 10.04785,-31.67508 c 5.526318,-17.4213 10.026141,-32.00817 9.999608,-32.41525 -0.02653,-0.4071 -2.231169,-2.24839 -4.899188,-4.09175 -6.18607,-4.27402 -11.577993,-14.74867 -11.577993,-22.49205 0,-17.79231 13.032281,-31.32393 29.872881,-31.0175 4.194916,0.0763 8.690027,0.31657 9.989135,0.53385 2.225175,0.37219 13.400579,-14.41226 39.63817,-52.439099 l 5.75622,-8.342647 -3.53621,-6.275997 C 116.96703,35.92 119.3294,20.450518 129.09969,11.197819 c 12.39296,-11.73644205 29.56223,-11.39323633 41.79084,0.83538 11.05545,11.055451 12.64097,25.633202 4.1188,37.869691 l -2.44077,3.504585 21.82355,31.129211 c 20.92297,29.844634 21.96283,31.090894 25.19876,30.200744 6.03673,-1.66061 16.00359,-0.7501 21.22377,1.93886 11.05921,5.6967 17.10909,15.52583 17.10909,27.79679 0,9.26516 -3.50827,16.68845 -10.871,23.00236 l -5.56272,4.77032 5.70913,17.79661 c 3.14002,9.78814 7.70269,24.15269 10.13926,31.92124 l 4.43015,14.12461 6.81368,0.70323 c 27.23914,2.81133 38.46152,34.28577 18.59384,52.14853 -9.67838,8.70169 -20.94669,10.78293 -31.79471,5.87242 -12.14831,-5.4991 -18.33817,-14.90406 -18.33817,-27.86325 0,-10.02804 3.10703,-16.71328 10.84658,-23.33805 l 5.30798,-4.54343 -2.09336,-7.35164 c -1.15134,-4.04339 -5.68616,-18.50628 -10.07737,-32.13976 l -7.98402,-24.78813 -5.03845,-0.36454 -5.03845,-0.36454 -9.88162,31.50861 c -5.43489,17.32972 -9.86815,32.15786 -9.85169,32.95139 0.0164,0.79352 1.47136,2.38725 3.23312,3.5416 1.76175,1.15434 4.87637,4.40856 6.92137,7.2316 13.68979,18.89821 1.95515,44.98108 -21.48595,47.75734 -17.00038,2.01345 -33.11597,-12.63468 -33.11597,-30.10045 0,-8.71102 2.52535,-14.37699 9.39512,-21.07926 6.73411,-6.56992 13.47229,-9.42921 22.22076,-9.42921 3.66324,0 3.93296,-0.40217 7.03386,-10.48729 1.77351,-5.76801 6.34176,-20.21186 10.15168,-32.09746 l 6.92713,-21.61017 -5.51384,-4.77032 c -3.0326,-2.62367 -6.70819,-7.23755 -8.16797,-10.25304 -5.0076,-10.34431 -2.76757,-25.63804 4.93084,-33.66527 1.54334,-1.60925 2.49561,-3.61137 2.11617,-4.44915 -0.37944,-0.83778 -9.80692,-14.394 -20.94995,-30.124929 -14.91896,-21.06152 -20.88221,-28.538267 -22.62004,-28.361094 -1.29798,0.132331 -5.07713,0.943748 -8.3981,1.803149 -4.77603,1.235939 -7.30025,1.235939 -12.07627,0 -3.32098,-0.859401 -7.02897,-1.670818 -8.23997,-1.803149 -1.54256,-0.16856 -8.47016,8.656114 -23.13669,29.472558 l -20.934845,29.713155 4.294721,5.62463 c 10.194774,13.35169 8.231194,30.42618 -4.819722,41.91028 l -5.572132,4.90318 10.233394,32.09746 10.233394,32.09746 h 4.66915 c 11.36677,0 22.26347,6.88668 27.35138,17.28599 6.86849,14.03869 1.91407,30.96022 -11.49142,39.24819 -5.40892,3.34409 -7.41231,3.84717 -15.32032,3.84717 -7.90616,0 -9.9119,-0.5034 -15.314605,-3.84363 -3.419312,-2.114 -7.941428,-6.29729 -10.049147,-9.29621 -3.228916,-4.59419 -3.905349,-6.90083 -4.296764,-14.65197 -0.378516,-7.4957 0.05626,-10.30736 2.347639,-15.18205 2.541236,-5.40626 7.236574,-10.56494 12.086255,-13.27896 1.469796,-0.82253 -0.106424,-7.02171 -8.587082,-33.77259 L 76.90066,174.0315 l -5.037156,0.37832 -5.037157,0.37832 -10.107874,31.86645 -10.107873,31.86647 6.864891,6.90472 c 13.347924,13.42538 13.52378,29.48312 0.465887,42.54102 -9.618909,9.61891 -21.019808,12.02341 -32.458327,6.8456 z"
     id="path3698"
     inkscape:connector-curvature="0" />
</svg>
