<?xml version="1.0" encoding="UTF-8" standalone="no"?>
<!DOCTYPE svg PUBLIC "-//W3C//DTD SVG 1.1//EN" "http://www.w3.org/Graphics/SVG/1.1/DTD/svg11.dtd">
<svg version="1.1" xmlns="http://www.w3.org/2000/svg" xmlns:xlink="http://www.w3.org/1999/xlink" preserveAspectRatio="xMidYMid meet" viewBox="0 0 640 640" width="640" height="640"><defs><path d="M163.94 129.32L170.05 129.92L176.09 130.74L182.05 131.79L187.93 133.06L193.71 134.54L199.41 136.23L205 138.14L210.49 140.24L215.87 142.54L221.15 145.03L226.3 147.71L231.33 150.57L236.23 153.61L241 156.82L245.63 160.2L250.12 163.75L254.46 167.45L258.65 171.31L262.69 175.32L266.56 179.48L270.26 183.78L273.8 188.21L277.15 192.77L280.33 197.46L283.32 202.28L286.12 207.21L288.72 212.25L291.12 217.4L293.32 222.66L295.31 228.01L297.08 233.46L298.63 239L299.95 244.62L301.05 250.33L301.91 256.11L302.53 261.95L302.9 267.87L303.03 273.85L302.9 279.83L302.53 285.76L301.91 291.64L301.05 297.49L299.95 303.31L298.63 309.11L297.08 314.89L295.31 320.66L293.32 326.43L291.12 332.2L288.72 337.98L286.12 343.78L283.32 349.61L280.33 355.47L277.15 361.36L273.8 367.3L270.26 373.29L266.56 379.34L262.69 385.46L258.65 391.65L254.46 397.91L250.12 404.26L245.63 410.71L241 417.25L236.23 423.9L231.33 430.66L226.3 437.54L221.15 444.55L215.87 451.69L210.49 458.97L205 466.4L199.41 473.98L193.71 481.72L187.93 489.63L182.05 497.71L176.09 505.97L170.05 514.42L163.94 523.07L157.76 531.91L151.52 540.96L145.27 531.91L139.09 523.07L132.98 514.42L126.94 505.97L120.98 497.71L115.1 489.63L109.32 481.72L103.62 473.98L98.03 466.4L92.54 458.97L87.16 451.69L81.89 444.55L76.73 437.54L71.7 430.66L66.8 423.9L62.03 417.25L57.4 410.71L52.91 404.26L48.57 397.91L44.38 391.65L40.34 385.46L36.47 379.34L32.77 373.29L29.23 367.3L25.88 361.36L22.7 355.47L19.71 349.61L16.91 343.78L14.31 337.98L11.91 332.2L9.71 326.43L7.72 320.66L5.95 314.89L4.4 309.11L3.08 303.31L1.98 297.49L1.12 291.64L0.5 285.76L0.13 279.83L0 273.85L0.13 267.87L0.5 261.95L1.12 256.11L1.98 250.33L3.08 244.62L4.4 239L5.95 233.46L7.72 228.01L9.71 222.66L11.91 217.4L14.31 212.25L16.91 207.21L19.71 202.28L22.7 197.46L25.88 192.77L29.23 188.21L32.77 183.78L36.47 179.48L40.34 175.32L44.38 171.31L48.57 167.45L52.91 163.75L57.4 160.2L62.03 156.82L66.8 153.61L71.7 150.57L76.73 147.71L81.89 145.03L87.16 142.54L92.54 140.24L98.03 138.14L103.62 136.23L109.32 134.54L115.1 133.06L120.98 131.79L126.94 130.74L132.98 129.92L139.09 129.32L145.27 128.96L151.52 128.84L157.76 128.96L163.94 129.32ZM145.63 197.76L142.73 198.04L139.87 198.43L137.05 198.92L134.27 199.52L131.53 200.23L128.83 201.03L126.18 201.93L123.58 202.93L121.03 204.02L118.53 205.2L116.09 206.46L113.71 207.82L111.39 209.26L109.13 210.78L106.93 212.38L104.81 214.06L102.75 215.82L100.77 217.65L98.86 219.55L97.02 221.51L95.27 223.55L93.59 225.65L92 227.81L90.5 230.03L89.08 232.31L87.76 234.65L86.52 237.04L85.38 239.48L84.34 241.97L83.4 244.51L82.57 247.09L81.83 249.71L81.2 252.37L80.68 255.07L80.28 257.81L79.98 260.58L79.8 263.38L79.74 266.22L79.8 269.05L79.98 271.85L80.28 274.62L80.68 277.36L81.2 280.06L81.83 282.72L82.57 285.35L83.4 287.93L84.34 290.46L85.38 292.95L86.52 295.39L87.76 297.78L89.08 300.12L90.5 302.4L92 304.62L93.59 306.78L95.27 308.88L97.02 310.92L98.86 312.88L100.77 314.78L102.75 316.61L104.81 318.37L106.93 320.05L109.13 321.65L111.39 323.17L113.71 324.61L116.09 325.97L118.53 327.24L121.03 328.42L123.58 329.5L126.18 330.5L128.83 331.4L131.53 332.2L134.27 332.91L137.05 333.51L139.87 334L142.73 334.39L145.63 334.67L148.56 334.85L151.52 334.9L154.47 334.85L157.4 334.67L160.3 334.39L163.16 334L165.98 333.51L168.76 332.91L171.5 332.2L174.2 331.4L176.85 330.5L179.45 329.5L182 328.42L184.5 327.24L186.94 325.97L189.32 324.61L191.64 323.17L193.9 321.65L196.1 320.05L198.22 318.37L200.28 316.61L202.26 314.78L204.18 312.88L206.01 310.92L207.76 308.88L209.44 306.78L211.03 304.62L212.53 302.4L213.95 300.12L215.27 297.78L216.51 295.39L217.65 292.95L218.69 290.46L219.63 287.93L220.47 285.35L221.2 282.72L221.83 280.06L222.35 277.36L222.75 274.62L223.05 271.85L223.23 269.05L223.29 266.22L223.23 263.38L223.05 260.58L222.75 257.81L222.35 255.07L221.83 252.37L221.2 249.71L220.47 247.09L219.63 244.51L218.69 241.97L217.65 239.48L216.51 237.04L215.27 234.65L213.95 232.31L212.53 230.03L211.03 227.81L209.44 225.65L207.76 223.55L206.01 221.51L204.18 219.55L202.26 217.65L200.28 215.82L198.22 214.06L196.1 212.38L193.9 210.78L191.64 209.26L189.32 207.82L186.94 206.46L184.5 205.2L182 204.02L179.45 202.93L176.85 201.93L174.2 201.03L171.5 200.23L168.76 199.52L165.98 198.92L163.16 198.43L160.3 198.04L157.4 197.76L154.47 197.59L151.52 197.53L148.56 197.59L145.63 197.76Z" id="eaudHIuhV"></path><path d="M332.43 129.32L338.54 129.92L344.58 130.74L350.54 131.79L356.41 133.06L362.2 134.54L367.89 136.23L373.49 138.14L378.98 140.24L384.36 142.54L389.63 145.03L394.78 147.71L399.81 150.57L404.71 153.61L409.48 156.82L414.11 160.2L418.6 163.75L422.95 167.45L427.14 171.31L431.17 175.32L435.04 179.48L438.75 183.78L442.28 188.21L445.64 192.77L448.81 197.46L451.8 202.28L454.6 207.21L457.21 212.25L459.61 217.4L461.8 222.66L463.79 228.01L465.56 233.46L467.11 239L468.44 244.62L469.53 250.33L470.39 256.11L471.01 261.95L471.39 267.87L471.52 273.85L471.39 279.83L471.01 285.76L470.39 291.64L469.53 297.49L468.44 303.31L467.11 309.11L465.56 314.89L463.79 320.66L461.8 326.43L459.61 332.2L457.21 337.98L454.6 343.78L451.8 349.61L448.81 355.47L445.64 361.36L442.28 367.3L438.75 373.29L435.04 379.34L431.17 385.46L427.14 391.65L422.95 397.91L418.6 404.26L414.11 410.71L409.48 417.25L404.71 423.9L399.81 430.66L394.78 437.54L389.63 444.55L384.36 451.69L378.98 458.97L373.49 466.4L367.89 473.98L362.2 481.72L356.41 489.63L350.54 497.71L344.58 505.97L338.54 514.42L332.43 523.07L326.25 531.91L320 540.96L313.75 531.91L307.57 523.07L301.46 514.42L295.42 505.97L289.46 497.71L283.59 489.63L277.8 481.72L272.11 473.98L266.51 466.4L261.02 458.97L255.64 451.69L250.37 444.55L245.22 437.54L240.19 430.66L235.29 423.9L230.52 417.25L225.89 410.71L221.4 404.26L217.05 397.91L212.86 391.65L208.83 385.46L204.96 379.34L201.25 373.29L197.72 367.3L194.36 361.36L191.19 355.47L188.2 349.61L185.4 343.78L182.79 337.98L180.39 332.2L178.2 326.43L176.21 320.66L174.44 314.89L172.89 309.11L171.56 303.31L170.47 297.49L169.61 291.64L168.99 285.76L168.61 279.83L168.48 273.85L168.61 267.87L168.99 261.95L169.61 256.11L170.47 250.33L171.56 244.62L172.89 239L174.44 233.46L176.21 228.01L178.2 222.66L180.39 217.4L182.79 212.25L185.4 207.21L188.2 202.28L191.19 197.46L194.36 192.77L197.72 188.21L201.25 183.78L204.96 179.48L208.83 175.32L212.86 171.31L217.05 167.45L221.4 163.75L225.89 160.2L230.52 156.82L235.29 153.61L240.19 150.57L245.22 147.71L250.37 145.03L255.64 142.54L261.02 140.24L266.51 138.14L272.11 136.23L277.8 134.54L283.59 133.06L289.46 131.79L295.42 130.74L301.46 129.92L307.57 129.32L313.75 128.96L320 128.84L326.25 128.96L332.43 129.32ZM314.11 197.76L311.22 198.04L308.36 198.43L305.54 198.92L302.75 199.52L300.01 200.23L297.32 201.03L294.66 201.93L292.06 202.93L289.51 204.02L287.02 205.2L284.58 206.46L282.19 207.82L279.87 209.26L277.61 210.78L275.42 212.38L273.29 214.06L271.24 215.82L269.25 217.65L267.34 219.55L265.51 221.51L263.75 223.55L262.08 225.65L260.49 227.81L258.98 230.03L257.57 232.31L256.24 234.65L255.01 237.04L253.87 239.48L252.83 241.97L251.89 244.51L251.05 247.09L250.32 249.71L249.69 252.37L249.17 255.07L248.76 257.81L248.47 260.58L248.29 263.38L248.23 266.22L248.29 269.05L248.47 271.85L248.76 274.62L249.17 277.36L249.69 280.06L250.32 282.72L251.05 285.35L251.89 287.93L252.83 290.46L253.87 292.95L255.01 295.39L256.24 297.78L257.57 300.12L258.98 302.4L260.49 304.62L262.08 306.78L263.75 308.88L265.51 310.92L267.34 312.88L269.25 314.78L271.24 316.61L273.29 318.37L275.42 320.05L277.61 321.65L279.87 323.17L282.19 324.61L284.58 325.97L287.02 327.24L289.51 328.42L292.06 329.5L294.66 330.5L297.32 331.4L300.01 332.2L302.75 332.91L305.54 333.51L308.36 334L311.22 334.39L314.11 334.67L317.04 334.85L320 334.9L322.96 334.85L325.89 334.67L328.78 334.39L331.64 334L334.46 333.51L337.25 332.91L339.99 332.2L342.68 331.4L345.34 330.5L347.94 329.5L350.49 328.42L352.98 327.24L355.42 325.97L357.81 324.61L360.13 323.17L362.39 321.65L364.58 320.05L366.71 318.37L368.76 316.61L370.75 314.78L372.66 312.88L374.49 310.92L376.25 308.88L377.92 306.78L379.51 304.62L381.02 302.4L382.43 300.12L383.76 297.78L384.99 295.39L386.13 292.95L387.17 290.46L388.11 287.93L388.95 285.35L389.68 282.72L390.31 280.06L390.83 277.36L391.24 274.62L391.53 271.85L391.71 269.05L391.77 266.22L391.71 263.38L391.53 260.58L391.24 257.81L390.83 255.07L390.31 252.37L389.68 249.71L388.95 247.09L388.11 244.51L387.17 241.97L386.13 239.48L384.99 237.04L383.76 234.65L382.43 232.31L381.02 230.03L379.51 227.81L377.92 225.65L376.25 223.55L374.49 221.51L372.66 219.55L370.75 217.65L368.76 215.82L366.71 214.06L364.58 212.38L362.39 210.78L360.13 209.26L357.81 207.82L355.42 206.46L352.98 205.2L350.49 204.02L347.94 202.93L345.34 201.93L342.68 201.03L339.99 200.23L337.25 199.52L334.46 198.92L331.64 198.43L328.78 198.04L325.89 197.76L322.96 197.59L320 197.53L317.04 197.59L314.11 197.76Z" id="a6OAK8KNmA"></path><path d="M500.91 129.32L507.02 129.92L513.06 130.74L519.02 131.79L524.9 133.06L530.68 134.54L536.38 136.23L541.97 138.14L547.46 140.24L552.84 142.54L558.11 145.03L563.27 147.71L568.3 150.57L573.2 153.61L577.97 156.82L582.6 160.2L587.09 163.75L591.43 167.45L595.62 171.31L599.66 175.32L603.53 179.48L607.23 183.78L610.77 188.21L614.12 192.77L617.3 197.46L620.29 202.28L623.09 207.21L625.69 212.25L628.09 217.4L630.29 222.66L632.28 228.01L634.05 233.46L635.6 239L636.92 244.62L638.02 250.33L638.88 256.11L639.5 261.95L639.87 267.87L640 273.85L639.87 279.83L639.5 285.76L638.88 291.64L638.02 297.49L636.92 303.31L635.6 309.11L634.05 314.89L632.28 320.66L630.29 326.43L628.09 332.2L625.69 337.98L623.09 343.78L620.29 349.61L617.3 355.47L614.12 361.36L610.77 367.3L607.23 373.29L603.53 379.34L599.66 385.46L595.62 391.65L591.43 397.91L587.09 404.26L582.6 410.71L577.97 417.25L573.2 423.9L568.3 430.66L563.27 437.54L558.11 444.55L552.84 451.69L547.46 458.97L541.97 466.4L536.38 473.98L530.68 481.72L524.9 489.63L519.02 497.71L513.06 505.97L507.02 514.42L500.91 523.07L494.73 531.91L488.48 540.96L482.24 531.91L476.06 523.07L469.95 514.42L463.91 505.97L457.95 497.71L452.07 489.63L446.29 481.72L440.59 473.98L435 466.4L429.51 458.97L424.13 451.69L418.85 444.55L413.7 437.54L408.67 430.66L403.77 423.9L399 417.25L394.37 410.71L389.88 404.26L385.54 397.91L381.35 391.65L377.31 385.46L373.44 379.34L369.74 373.29L366.2 367.3L362.85 361.36L359.67 355.47L356.68 349.61L353.88 343.78L351.28 337.98L348.88 332.2L346.68 326.43L344.69 320.66L342.92 314.89L341.37 309.11L340.05 303.31L338.95 297.49L338.09 291.64L337.47 285.76L337.1 279.83L336.97 273.85L337.1 267.87L337.47 261.95L338.09 256.11L338.95 250.33L340.05 244.62L341.37 239L342.92 233.46L344.69 228.01L346.68 222.66L348.88 217.4L351.28 212.25L353.88 207.21L356.68 202.28L359.67 197.46L362.85 192.77L366.2 188.21L369.74 183.78L373.44 179.48L377.31 175.32L381.35 171.31L385.54 167.45L389.88 163.75L394.37 160.2L399 156.82L403.77 153.61L408.67 150.57L413.7 147.71L418.85 145.03L424.13 142.54L429.51 140.24L435 138.14L440.59 136.23L446.29 134.54L452.07 133.06L457.95 131.79L463.91 130.74L469.95 129.92L476.06 129.32L482.24 128.96L488.48 128.84L494.73 128.96L500.91 129.32ZM482.6 197.76L479.7 198.04L476.84 198.43L474.02 198.92L471.24 199.52L468.5 200.23L465.8 201.03L463.15 201.93L460.55 202.93L458 204.02L455.5 205.2L453.06 206.46L450.68 207.82L448.36 209.26L446.1 210.78L443.9 212.38L441.78 214.06L439.72 215.82L437.74 217.65L435.82 219.55L433.99 221.51L432.24 223.55L430.56 225.65L428.97 227.81L427.47 230.03L426.05 232.31L424.73 234.65L423.49 237.04L422.35 239.48L421.31 241.97L420.37 244.51L419.53 247.09L418.8 249.71L418.17 252.37L417.65 255.07L417.25 257.81L416.95 260.58L416.77 263.38L416.71 266.22L416.77 269.05L416.95 271.85L417.25 274.62L417.65 277.36L418.17 280.06L418.8 282.72L419.53 285.35L420.37 287.93L421.31 290.46L422.35 292.95L423.49 295.39L424.73 297.78L426.05 300.12L427.47 302.4L428.97 304.62L430.56 306.78L432.24 308.88L433.99 310.92L435.82 312.88L437.74 314.78L439.72 316.61L441.78 318.37L443.9 320.05L446.1 321.65L448.36 323.17L450.68 324.61L453.06 325.97L455.5 327.24L458 328.42L460.55 329.5L463.15 330.5L465.8 331.4L468.5 332.2L471.24 332.91L474.02 333.51L476.84 334L479.7 334.39L482.6 334.67L485.53 334.85L488.48 334.9L491.44 334.85L494.37 334.67L497.27 334.39L500.13 334L502.95 333.51L505.73 332.91L508.47 332.2L511.17 331.4L513.82 330.5L516.42 329.5L518.97 328.42L521.47 327.24L523.91 325.97L526.29 324.61L528.61 323.17L530.87 321.65L533.07 320.05L535.19 318.37L537.25 316.61L539.23 314.78L541.14 312.88L542.98 310.92L544.73 308.88L546.41 306.78L548 304.62L549.5 302.4L550.92 300.12L552.24 297.78L553.48 295.39L554.62 292.95L555.66 290.46L556.6 287.93L557.43 285.35L558.17 282.72L558.8 280.06L559.32 277.36L559.72 274.62L560.02 271.85L560.2 269.05L560.26 266.22L560.2 263.38L560.02 260.58L559.72 257.81L559.32 255.07L558.8 252.37L558.17 249.71L557.43 247.09L556.6 244.51L555.66 241.97L554.62 239.48L553.48 237.04L552.24 234.65L550.92 232.31L549.5 230.03L548 227.81L546.41 225.65L544.73 223.55L542.98 221.51L541.14 219.55L539.23 217.65L537.25 215.82L535.19 214.06L533.07 212.38L530.87 210.78L528.61 209.26L526.29 207.82L523.91 206.46L521.47 205.2L518.97 204.02L516.42 202.93L513.82 201.93L511.17 201.03L508.47 200.23L505.73 199.52L502.95 198.92L500.13 198.43L497.27 198.04L494.37 197.76L491.44 197.59L488.48 197.53L485.53 197.59L482.6 197.76Z" id="hAwGN1qIt"></path></defs><g><g><g><use xlink:href="#eaudHIuhV" opacity="1" fill="#144778" fill-opacity="1"></use><g><use xlink:href="#eaudHIuhV" opacity="1" fill-opacity="0" stroke="#000000" stroke-width="1" stroke-opacity="0"></use></g></g><g><use xlink:href="#a6OAK8KNmA" opacity="1" fill="#587896" fill-opacity="1"></use><g><use xlink:href="#a6OAK8KNmA" opacity="1" fill-opacity="0" stroke="#000000" stroke-width="1" stroke-opacity="0"></use></g></g><g><use xlink:href="#hAwGN1qIt" opacity="1" fill="#aaaaaa" fill-opacity="1"></use><g><use xlink:href="#hAwGN1qIt" opacity="1" fill-opacity="0" stroke="#000000" stroke-width="1" stroke-opacity="0"></use></g></g></g></g></svg>