<?xml version="1.0" encoding="UTF-8" standalone="no"?>
<!DOCTYPE svg PUBLIC "-//W3C//DTD SVG 1.1//EN" "http://www.w3.org/Graphics/SVG/1.1/DTD/svg11.dtd">
<svg version="1.1" xmlns="http://www.w3.org/2000/svg" xmlns:xlink="http://www.w3.org/1999/xlink" preserveAspectRatio="xMidYMid meet" viewBox="0 0 640 640" width="640" height="640"><defs><path d="M60 625.41C46.99 638.41 25.91 638.41 12.9 625.41C7.45 619.95 15.42 627.93 10.16 622.67C-3.39 609.12 -3.39 587.15 10.16 573.6C37.65 546.1 95.97 487.78 123.56 460.19C136.85 446.9 158.39 446.9 171.68 460.19C177.03 465.54 169.02 457.53 174.37 462.88C187.66 476.17 187.67 497.73 174.37 511.02C146.79 538.61 87.69 597.71 60 625.41Z" id="a4pK4wmER"></path><path d="M515.65 180.02C502.65 193.03 481.57 193.03 468.56 180.02C463.11 174.57 471.08 182.54 465.82 177.28C452.27 163.73 452.27 141.76 465.82 128.21C493.31 100.72 551.63 42.4 579.22 14.81C592.51 1.52 614.05 1.52 627.34 14.81C632.69 20.16 624.68 12.14 630.03 17.49C643.32 30.79 643.32 52.34 630.03 65.64C602.45 93.22 543.34 152.33 515.65 180.02Z" id="a8h7nUDh2"></path><path d="M180.72 464.31C188.35 482.75 179.6 503.88 161.17 511.51C154.56 514.25 165.09 509.89 157.73 512.94C141.39 519.71 122.65 511.95 115.89 495.61C93.77 442.23 41.48 316 19.81 263.7C11.81 244.37 20.98 222.21 40.31 214.2C46.59 211.6 32.72 217.34 39.57 214.51C57.32 207.15 77.68 215.58 85.03 233.33C106.93 286.2 158.92 411.69 180.72 464.31Z" id="dyk0TrrGL"></path><path d="M602.96 391.02C610.6 409.45 601.84 430.59 583.41 438.22C576.81 440.96 587.34 436.6 579.97 439.65C563.63 446.42 544.9 438.66 538.13 422.32C516.02 368.93 463.72 242.71 442.06 190.41C434.05 171.08 443.23 148.91 462.56 140.91C468.84 138.3 454.96 144.05 461.82 141.21C479.57 133.86 499.92 142.29 507.27 160.04C529.18 212.91 581.16 338.4 602.96 391.02Z" id="fQxHvZfnL"></path><path d="M80.02 271.33C65.91 285.44 43.04 285.44 28.93 271.33C23.88 266.28 31.94 274.33 26.3 268.7C13.79 256.19 13.79 235.92 26.3 223.41C67.15 182.55 163.76 85.93 203.79 45.9C218.59 31.11 242.57 31.11 257.37 45.9C262.18 50.71 251.56 40.09 256.8 45.33C270.39 58.92 270.39 80.95 256.8 94.53C216.34 135 120.3 231.05 80.02 271.33Z" id="i4P451ClpQ"></path><path d="M418.75 612.38C404.64 626.49 381.77 626.49 367.66 612.38C362.61 607.33 370.67 615.38 365.03 609.75C352.52 597.24 352.52 576.97 365.03 564.46C405.88 523.6 502.49 426.98 542.52 386.95C557.32 372.16 581.3 372.15 596.1 386.95C600.91 391.76 590.29 381.14 595.53 386.38C609.12 399.97 609.12 422 595.53 435.58C555.07 476.05 459.03 572.1 418.75 612.38Z" id="c736MCCc7h"></path><path d="M142.25 524.64C123.82 517 115.06 495.87 122.7 477.44C125.43 470.83 121.07 481.36 124.12 474C130.89 457.66 149.62 449.9 165.96 456.67C219.35 478.78 345.58 531.06 397.88 552.72C417.21 560.72 426.39 582.89 418.39 602.22C415.79 608.5 421.53 594.62 418.7 601.47C411.34 619.22 390.99 627.66 373.24 620.3C320.37 598.4 194.88 546.43 142.25 524.64Z" id="aLJ0Nk4D9"></path><path d="M225.05 105.22C206.62 97.59 197.87 76.46 205.5 58.02C208.24 51.42 203.88 61.95 206.93 54.59C213.69 38.24 232.43 30.48 248.77 37.25C302.15 59.36 428.39 111.64 480.69 133.3C500.02 141.31 509.2 163.47 501.19 182.8C498.59 189.08 504.34 175.21 501.5 182.06C494.15 199.81 473.8 208.24 456.05 200.89C403.17 178.99 277.68 127.02 225.05 105.22Z" id="c2nbOtVGqv"></path><path d="M253.18 204.69C244.69 201.18 240.65 191.44 244.17 182.95C245.31 180.2 242.94 185.93 244.22 182.83C247.34 175.3 255.97 171.72 263.5 174.84C288.09 185.02 346.23 209.11 370.32 219.08C379.23 222.77 383.45 232.98 379.77 241.88C378.69 244.48 381.7 237.22 380.51 240.08C377.13 248.26 367.75 252.14 359.57 248.76C335.22 238.67 277.42 214.73 253.18 204.69Z" id="bmx8p2rH8"></path><path d="M376.7 480.35C370.2 486.85 359.67 486.85 353.17 480.35C351.06 478.25 355.44 482.63 353.07 480.26C347.31 474.5 347.31 465.16 353.07 459.39C371.89 440.57 416.39 396.07 434.82 377.63C441.64 370.82 452.69 370.82 459.5 377.63C461.49 379.62 455.93 374.06 458.13 376.25C464.38 382.51 464.38 392.66 458.13 398.92C439.49 417.56 395.25 461.8 376.7 480.35Z" id="b1Ag4p6uAe"></path><path d="M233.27 378.62C236.79 387.11 232.76 396.84 224.27 400.36C221.52 401.5 227.24 399.13 224.14 400.41C216.62 403.53 207.99 399.96 204.87 392.43C194.68 367.84 170.6 309.7 160.62 285.61C156.93 276.71 161.16 266.5 170.06 262.81C172.66 261.73 165.4 264.74 168.26 263.56C176.44 260.17 185.81 264.05 189.2 272.23C199.29 296.58 223.23 354.38 233.27 378.62Z" id="a5TgiTQsdq"></path></defs><g><g><g><use xlink:href="#a4pK4wmER" opacity="1" fill="#000000" fill-opacity="1"></use></g><g><use xlink:href="#a8h7nUDh2" opacity="1" fill="#000000" fill-opacity="1"></use></g><g><use xlink:href="#dyk0TrrGL" opacity="1" fill="#000000" fill-opacity="1"></use></g><g><use xlink:href="#fQxHvZfnL" opacity="1" fill="#000000" fill-opacity="1"></use></g><g><use xlink:href="#i4P451ClpQ" opacity="1" fill="#000000" fill-opacity="1"></use></g><g><use xlink:href="#c736MCCc7h" opacity="1" fill="#000000" fill-opacity="1"></use></g><g><use xlink:href="#aLJ0Nk4D9" opacity="1" fill="#000000" fill-opacity="1"></use></g><g><use xlink:href="#c2nbOtVGqv" opacity="1" fill="#000000" fill-opacity="1"></use></g><g><use xlink:href="#bmx8p2rH8" opacity="1" fill="#000000" fill-opacity="1"></use></g><g><use xlink:href="#b1Ag4p6uAe" opacity="1" fill="#000000" fill-opacity="1"></use></g><g><use xlink:href="#a5TgiTQsdq" opacity="1" fill="#000000" fill-opacity="1"></use></g></g></g></svg>