<?xml version="1.0" encoding="UTF-8" standalone="no"?>
<!DOCTYPE svg PUBLIC "-//W3C//DTD SVG 1.1//EN" "http://www.w3.org/Graphics/SVG/1.1/DTD/svg11.dtd">
<svg version="1.1" xmlns="http://www.w3.org/2000/svg" xmlns:xlink="http://www.w3.org/1999/xlink" preserveAspectRatio="xMidYMid meet" viewBox="0 0 640 640" width="640" height="640"><defs><path d="M28.19 288.74C21.53 295.16 10.98 295.16 4.32 288.74C1.55 286.07 5.6 289.97 2.93 287.4C-3.86 280.85 -3.87 269.97 2.93 263.42C16.87 249.98 46.43 221.47 60.42 207.98C67.22 201.42 78 201.42 84.81 207.98C87.52 210.6 83.46 206.68 86.17 209.3C92.84 215.72 92.84 226.4 86.17 232.83C72.19 246.31 42.23 275.2 28.19 288.74Z" id="aQ12WjeT"></path><path d="M89.39 210C93.23 218.94 88.95 229.29 79.91 232.9C76.48 234.27 81.16 232.4 77.36 233.92C69.22 237.17 59.98 233.34 56.53 225.3C45.31 199.2 18.81 137.5 7.82 111.94C3.79 102.56 8.29 91.71 17.76 87.92C21.04 86.62 14.7 89.15 18.25 87.73C27.09 84.2 37.13 88.35 40.88 97.1C51.99 122.94 78.34 184.28 89.39 210Z" id="cCsuzqxLJ"></path><path d="M303.45 174.17C307.29 183.11 303 193.46 293.97 197.07C290.53 198.44 295.22 196.57 291.41 198.09C283.28 201.34 274.04 197.52 270.58 189.47C259.37 163.38 232.86 101.68 221.88 76.11C217.85 66.74 222.34 55.88 231.82 52.1C235.09 50.79 228.75 53.32 232.31 51.9C241.14 48.37 251.18 52.53 254.94 61.27C266.04 87.11 292.39 148.45 303.45 174.17Z" id="bomKmW1wU"></path><path d="M38.34 115.67C31.12 122.64 19.67 122.64 12.44 115.67C9.88 113.2 13.97 117.14 11.11 114.38C4.84 108.34 4.84 98.29 11.11 92.25C31.82 72.27 80.8 25.05 101.09 5.48C108.67 -1.83 120.67 -1.83 128.25 5.48C130.69 7.83 125.3 2.64 127.96 5.2C134.77 11.77 134.78 22.68 127.96 29.25C107.45 49.03 58.76 95.98 38.34 115.67Z" id="b4nG5hLEiO"></path><path d="M210.06 282.37C202.83 289.34 191.39 289.34 184.16 282.37C181.6 279.9 185.68 283.84 182.83 281.09C176.56 275.04 176.56 265 182.83 258.95C203.54 238.98 252.51 191.75 272.81 172.18C280.38 164.88 292.39 164.88 299.97 172.18C302.4 174.53 297.02 169.34 299.68 171.91C306.49 178.47 306.49 189.39 299.68 195.96C279.17 215.74 230.48 262.68 210.06 282.37Z" id="dL6hByIun"></path><path d="M69.89 239.48C60.62 235.78 56.22 225.16 60.16 215.99C61.51 212.84 59.02 218.63 60.54 215.11C64.08 206.85 73.57 202.93 81.91 206.26C108.97 217.07 172.97 242.62 199.48 253.21C209.21 257.09 213.82 268.23 209.69 277.85C208.41 280.83 211.61 273.36 210.21 276.63C206.36 285.6 196.06 289.87 186.99 286.25C160.19 275.54 96.57 250.14 69.89 239.48Z" id="c1ZfVoh8AA"></path><path d="M111.87 34.48C102.6 30.77 98.2 20.15 102.14 10.98C103.49 7.84 101 13.63 102.52 10.1C106.06 1.85 115.54 -2.08 123.89 1.25C150.95 12.06 214.95 37.61 241.46 48.2C251.19 52.09 255.8 63.22 251.66 72.84C250.38 75.82 253.59 68.36 252.19 71.62C248.34 80.59 238.03 84.86 228.97 81.24C202.16 70.53 138.55 45.13 111.87 34.48Z" id="e10mjasL3W"></path><path d="M126.12 83.1C121.85 81.39 119.83 76.5 121.64 72.27C122.2 70.97 120.87 74.06 121.51 72.58C123.14 68.78 127.51 66.97 131.36 68.51C143.82 73.48 173.3 85.25 185.51 90.13C189.99 91.92 192.11 97.05 190.21 101.48C189.68 102.71 191.34 98.84 190.76 100.21C188.98 104.34 184.24 106.3 180.06 104.64C167.72 99.71 138.41 88 126.12 83.1Z" id="e6aNWOb7a8"></path><path d="M188.74 217.84C185.41 221.05 180.14 221.05 176.81 217.84C175.75 216.81 177.97 218.95 176.76 217.79C173.88 215.01 173.88 210.38 176.76 207.59C186.3 198.4 208.86 176.64 218.21 167.63C221.7 164.26 227.23 164.26 230.72 167.63C231.73 168.6 228.91 165.88 230.02 166.96C233.16 169.98 233.16 175.01 230.02 178.03C220.57 187.14 198.15 208.77 188.74 217.84Z" id="e2VGzYQMuF"></path><path d="M116.04 168.11C117.8 172.23 115.83 177 111.67 178.66C110.23 179.23 112.84 178.19 111.23 178.84C107.48 180.33 103.23 178.57 101.64 174.86C96.47 162.84 84.26 134.42 79.2 122.65C77.35 118.33 79.42 113.33 83.78 111.59C85.14 111.04 81.78 112.39 83.27 111.79C87.34 110.17 91.96 112.08 93.69 116.11C98.81 128.01 110.94 156.26 116.04 168.11Z" id="i3ZtvLJX6M"></path><path d="M577.02 423.44C570.36 429.86 559.81 429.86 553.15 423.44C550.38 420.77 554.42 424.67 551.76 422.1C544.96 415.55 544.96 404.67 551.76 398.12C565.69 384.68 595.26 356.17 609.24 342.68C616.05 336.12 626.83 336.12 633.64 342.68C636.35 345.3 632.29 341.38 635 344C641.67 350.42 641.67 361.1 635 367.53C621.02 381.01 591.06 409.9 577.02 423.44Z" id="b61J005t4v"></path><path d="M407.22 562.4C411.07 571.34 406.78 581.69 397.74 585.3C394.31 586.67 399 584.8 395.19 586.32C387.06 589.57 377.82 585.74 374.36 577.7C363.15 551.6 336.64 489.9 325.65 464.34C321.63 454.96 326.12 444.11 335.6 440.32C338.87 439.02 332.53 441.55 336.09 440.13C344.92 436.6 354.96 440.76 358.72 449.5C369.82 475.34 396.17 536.68 407.22 562.4Z" id="fkqwtf6hE"></path><path d="M621.28 526.58C625.12 535.52 620.84 545.87 611.8 549.47C608.36 550.85 613.05 548.97 609.24 550.5C601.11 553.74 591.87 549.92 588.41 541.87C577.2 515.78 550.69 454.08 539.71 428.52C535.68 419.14 540.17 408.29 549.65 404.5C552.92 403.19 546.58 405.73 550.14 404.3C558.98 400.78 569.01 404.93 572.77 413.67C583.87 439.52 610.23 500.85 621.28 526.58Z" id="b1qt01ExVz"></path><path d="M356.18 468.07C348.95 475.04 337.5 475.04 330.28 468.07C327.71 465.6 331.8 469.54 328.94 466.78C322.67 460.74 322.67 450.69 328.94 444.65C349.65 424.68 398.63 377.45 418.92 357.88C426.5 350.57 438.5 350.57 446.08 357.88C448.52 360.23 443.14 355.04 445.79 357.6C452.61 364.17 452.61 375.08 445.79 381.65C425.28 401.43 376.59 448.38 356.18 468.07Z" id="aIhS3GLAi"></path><path d="M527.89 634.77C520.67 641.74 509.22 641.74 501.99 634.77C499.43 632.3 503.52 636.24 500.66 633.49C494.39 627.44 494.39 617.4 500.66 611.35C521.37 591.38 570.35 544.15 590.64 524.59C598.22 517.28 610.22 517.28 617.8 524.58C620.24 526.93 614.85 521.74 617.51 524.31C624.32 530.88 624.32 541.79 617.51 548.36C597 568.14 548.31 615.09 527.89 634.77Z" id="c6OPRMd7d"></path><path d="M387.72 591.88C378.45 588.18 374.05 577.56 377.99 568.39C379.34 565.25 376.86 571.04 378.37 567.51C381.92 559.25 391.4 555.33 399.74 558.66C426.81 569.47 490.8 595.02 517.31 605.61C527.04 609.5 531.65 620.63 527.52 630.25C526.24 633.23 529.45 625.77 528.04 629.03C524.19 638 513.89 642.27 504.82 638.65C478.02 627.94 414.4 602.54 387.72 591.88Z" id="b2s6zWdqKn"></path><path d="M429.7 386.88C420.43 383.17 416.03 372.56 419.97 363.38C421.32 360.24 418.84 366.03 420.35 362.5C423.9 354.25 433.38 350.32 441.72 353.65C468.79 364.46 532.78 390.02 559.29 400.6C569.02 404.49 573.63 415.62 569.5 425.25C568.22 428.23 571.42 420.76 570.02 424.02C566.17 432.99 555.87 437.26 546.8 433.64C520 422.94 456.38 397.53 429.7 386.88Z" id="hzlt2ic07"></path><path d="M443.96 435.5C439.69 433.79 437.66 428.9 439.48 424.68C440.04 423.37 438.71 426.46 439.34 424.98C440.98 421.18 445.34 419.37 449.19 420.91C461.65 425.88 491.13 437.66 503.34 442.53C507.82 444.32 509.95 449.45 508.04 453.88C507.51 455.11 509.18 451.25 508.59 452.61C506.82 456.74 502.07 458.7 497.89 457.04C485.55 452.11 456.25 440.41 443.96 435.5Z" id="dd4N87MqA"></path><path d="M506.58 570.24C503.25 573.45 497.98 573.45 494.65 570.24C493.58 569.21 495.8 571.35 494.6 570.19C491.71 567.41 491.71 562.78 494.6 560C504.14 550.8 526.7 529.04 536.04 520.03C539.53 516.66 545.06 516.66 548.55 520.03C549.56 521 546.74 518.29 547.85 519.36C550.99 522.38 550.99 527.41 547.86 530.43C538.41 539.55 515.98 561.17 506.58 570.24Z" id="aS7tfAsGE"></path><path d="M433.87 520.51C435.64 524.63 433.66 529.4 429.5 531.06C428.07 531.63 430.67 530.59 429.06 531.24C425.32 532.73 421.06 530.97 419.47 527.26C414.3 515.25 402.09 486.83 397.03 475.05C395.18 470.73 397.25 465.73 401.61 463.99C402.97 463.45 399.61 464.79 401.1 464.19C405.17 462.57 409.79 464.48 411.52 468.51C416.64 480.41 428.78 508.67 433.87 520.51Z" id="bEipz6Ynn"></path><path d="M353.79 384.54C341.49 372.25 333.8 364.56 330.73 361.48C330.73 361.48 321.9 352.57 321.9 352.57C317.44 348.02 322.78 353.46 321.9 352.56C321.9 352.56 276.95 307.41 276.95 307.41C273.34 303.84 264.32 294.92 249.89 280.64C241.97 288.56 237.01 293.51 235.03 295.5C227.6 302.93 227.6 314.98 235.03 322.41C240.37 327.75 253.71 341.09 275.05 362.43C264.51 372.97 257.93 379.55 255.3 382.18C246.72 390.76 254.55 405.25 266.42 402.77C278.07 400.34 307.19 394.26 353.79 384.54Z" id="adoksq5C9"></path><path d="M267.46 262.32C279.72 274.58 287.38 282.24 290.45 285.3C290.45 285.3 299.25 294.2 299.25 294.2C303.69 298.74 298.37 293.3 299.25 294.2C299.25 294.2 344.05 339.21 344.05 339.21C347.65 342.77 356.64 351.67 371.03 365.9C379.78 357.15 385.24 351.69 387.43 349.5C394.84 342.09 394.84 330.08 387.43 322.67C382.11 317.35 368.81 304.05 347.54 282.78C356.97 273.34 362.87 267.45 365.23 265.09C374.85 255.46 365.83 239.25 352.57 242.36C341.23 245.02 312.86 251.67 267.46 262.32Z" id="b1HQSSOj4o"></path></defs><g><g><g><use xlink:href="#aQ12WjeT" opacity="1" fill="#000000" fill-opacity="1"></use></g><g><use xlink:href="#cCsuzqxLJ" opacity="1" fill="#000000" fill-opacity="1"></use></g><g><use xlink:href="#bomKmW1wU" opacity="1" fill="#000000" fill-opacity="1"></use></g><g><use xlink:href="#b4nG5hLEiO" opacity="1" fill="#000000" fill-opacity="1"></use></g><g><use xlink:href="#dL6hByIun" opacity="1" fill="#000000" fill-opacity="1"></use></g><g><use xlink:href="#c1ZfVoh8AA" opacity="1" fill="#000000" fill-opacity="1"></use></g><g><use xlink:href="#e10mjasL3W" opacity="1" fill="#000000" fill-opacity="1"></use></g><g><use xlink:href="#e6aNWOb7a8" opacity="1" fill="#000000" fill-opacity="1"></use></g><g><use xlink:href="#e2VGzYQMuF" opacity="1" fill="#000000" fill-opacity="1"></use></g><g><use xlink:href="#i3ZtvLJX6M" opacity="1" fill="#000000" fill-opacity="1"></use></g><g><use xlink:href="#b61J005t4v" opacity="1" fill="#000000" fill-opacity="1"></use></g><g><use xlink:href="#fkqwtf6hE" opacity="1" fill="#000000" fill-opacity="1"></use></g><g><use xlink:href="#b1qt01ExVz" opacity="1" fill="#000000" fill-opacity="1"></use></g><g><use xlink:href="#aIhS3GLAi" opacity="1" fill="#000000" fill-opacity="1"></use></g><g><use xlink:href="#c6OPRMd7d" opacity="1" fill="#000000" fill-opacity="1"></use></g><g><use xlink:href="#b2s6zWdqKn" opacity="1" fill="#000000" fill-opacity="1"></use></g><g><use xlink:href="#hzlt2ic07" opacity="1" fill="#000000" fill-opacity="1"></use></g><g><use xlink:href="#dd4N87MqA" opacity="1" fill="#000000" fill-opacity="1"></use></g><g><use xlink:href="#aS7tfAsGE" opacity="1" fill="#000000" fill-opacity="1"></use></g><g><use xlink:href="#bEipz6Ynn" opacity="1" fill="#000000" fill-opacity="1"></use></g><g><use xlink:href="#adoksq5C9" opacity="1" fill="#000000" fill-opacity="1"></use></g><g><use xlink:href="#b1HQSSOj4o" opacity="1" fill="#000000" fill-opacity="1"></use></g></g></g></svg>