<?xml version="1.0" encoding="UTF-8" standalone="no"?>
<!-- Generator: IcoMoon.io -->

<svg
   xmlns:dc="http://purl.org/dc/elements/1.1/"
   xmlns:cc="http://creativecommons.org/ns#"
   xmlns:rdf="http://www.w3.org/1999/02/22-rdf-syntax-ns#"
   xmlns:svg="http://www.w3.org/2000/svg"
   xmlns="http://www.w3.org/2000/svg"
   xmlns:sodipodi="http://sodipodi.sourceforge.net/DTD/sodipodi-0.dtd"
   xmlns:inkscape="http://www.inkscape.org/namespaces/inkscape"
   fill="#000000"
   width="32"
   height="32"
   viewBox="0 0 32 32"
   version="1.1"
   id="svg6"
   sodipodi:docname="refresh.svg"
   inkscape:version="0.92.1 r15371">
  <metadata
     id="metadata12">
    <rdf:RDF>
      <cc:Work
         rdf:about="">
        <dc:format>image/svg+xml</dc:format>
        <dc:type
           rdf:resource="http://purl.org/dc/dcmitype/StillImage" />
      </cc:Work>
    </rdf:RDF>
  </metadata>
  <defs
     id="defs10" />
  <sodipodi:namedview
     pagecolor="#ffffff"
     bordercolor="#666666"
     borderopacity="1"
     objecttolerance="10"
     gridtolerance="10"
     guidetolerance="10"
     inkscape:pageopacity="0"
     inkscape:pageshadow="2"
     inkscape:window-width="1858"
     inkscape:window-height="1058"
     id="namedview8"
     showgrid="false"
     inkscape:zoom="7.375"
     inkscape:cx="54.831268"
     inkscape:cy="15.515592"
     inkscape:window-x="1974"
     inkscape:window-y="-8"
     inkscape:window-maximized="1"
     inkscape:current-layer="svg6" />
  <g
     id="g4">
    <path
       d="M 27.313,4.687 C 24.418,1.791 20.418,0 16,0 9.141,0 3.291,4.316 1.016,10.381 l 3.746,1.405 C 6.468,7.237 10.856,4 16,4 c 3.314,0 6.313,1.344 8.485,3.515 L 20,12 H 32 V 0 Z M 16,28 C 12.686,28 9.687,26.657 7.515,24.485 L 12,20 H 0 V 32 L 4.687,27.313 C 7.582,30.208 11.582,32 16,32 22.859,32 28.709,27.684 30.984,21.619 L 27.238,20.214 C 25.532,24.763 21.144,28 16,28 Z"
       id="path2"
       inkscape:connector-curvature="0"
       style="fill:#ffffff" />
  </g>
</svg>
