<?xml version="1.0" encoding="utf-8"?>
<!-- Generator: Adobe Illustrator 18.0.0, SVG Export Plug-In . SVG Version: 6.00 Build 0)  -->
<!DOCTYPE svg PUBLIC "-//W3C//DTD SVG 1.1//EN" "http://www.w3.org/Graphics/SVG/1.1/DTD/svg11.dtd">
<svg version="1.1" id="Слой_2" xmlns="http://www.w3.org/2000/svg" xmlns:xlink="http://www.w3.org/1999/xlink" x="0px" y="0px"
	 viewBox="181 0 1228 1200" enable-background="new 181 0 1228 1200" xml:space="preserve">
<path fill="#808080"    d="M1401.9,1117.1l-72.1-55.3c0,0,15.4,5.1,41.2,20.6
	c25.7,15.4,28.4,21.9,30.9,18.1c2.5-3.8-55.3-52.8-55.3-52.8l55.3,33.5c0,0-60.6-54.1-127.5-96.6c-66.9-42.5-128.8-69.5-145.4-69.5
	c-13.4,0-15.2,0-15.4,0c0,0-2.5-6.5-9-14.1c-6.5-7.8-10.3,0-10.3,0s0-7.8-5.1-14.1c-5.1-6.5-11.6,0-11.6,0s-41.2-36-54.1-47.6
	c-12.8-11.6-11.6,0-11.6,0v11.6c0,0-5.5,1.1-12.8,4.9l-55.5-47.7c2.8,0.6,5.8,0.3,9.5-1.3c4.4-1.8,29.2,1.1,32.9,1.3
	c6.1,0,8.6-4.4,11.6-10.6c3.4-7.1,5.1-14.3,8.9-21.3c15.8-29.2,34.2-53.4,31.3-87.8c-1.1-14.5-8.8-27.2-11.4-41.5
	c-1.3-6.5,0.3-14.7-4.1-20.3c-2.8-3.7-56.3-78.8-57.6-88c-2.5-17.1,1.6-36.7-3-54.1c-3.1-12.4-31.1-64.1-40.5-75.2
	c-18.2-21.5-35.9-37-55.3-57.7c-10-10.6-24.1-21.2-37.4-25.6c-11.6-3.8-28-7.6-31.8-20.9c2.8-0.3,5.6,0,8.5-0.3
	c-1-2.8-3.8-4.5-4.7-7.3c4.8,0.7,8.9,2.8,14.4,2.8c4.7,0,9.5-1.6,13.4-0.1c-2.5-4-8.3-6.4-8.6-12c4.8,1.7,10.2,2.1,15.1,3.5
	c-1.4-2-2.7-4-4.1-5.9c7.3-4.4,29.5,1,28.4-14.3c-6.2-0.6-12.6-1-18.4-1.8c-3.8-0.6-15.2-1.1-17.2-5.2c-2-4.4,9.3-7.9,13.6-8.5
	c5.2-0.8,12.6,3.8,16.4,2c-5.9-12.3-35.7-3.5-45.3-2c-7.6,1.3-15.2,5.1-23.2,5.8c-8.9,0.8-13.7-2.7-21-6.1
	c-0.7-8.8,104.5-245.4,103.8-252.8c-4.8-0.4-13,12-16.2,15.2C843.6,26,641,219,641,219c-13-9-26-18.8-38.7-28
	c-6.4-4.7-33.9-22.9-40.4-23c-0.7,4.7,15.8,27,22,32.8c7.9,7.2,13.6,17.2,21.9,24.1c-6.8,1-14,6.4-14.3,14.1
	c6.6-6.5,12.8-5.8,21.2-3.4c-1.7,8.9-6.9,15.2-9.6,23.9c-1,3.2-2.8,8.9-2,12.6c1.1,4.7,6.2,5.8,6.8,10.6
	c0.8,6.8-20.9,35.3-27.8,36.8c-1.8,3.7,0.3,5.5,1,9.3c3.1,0.8,6.1,1.4,9.5,1.1c3.1-0.3,14.3-1,14.3-1s6.2,8.2,7.2,12.4
	c6.1,0.7,15.4-2.8,21-4.9c9-3.4,12.3-6.6,19.5,2.3c-3.8,2.5-7.1,7.2-11,10.3c-1.8,1.6-6.5,3.2-7.5,5.2c-1.7,3.2,0,4.9,1.7,8.5
	c2.8,6.4,0.4,14,3.8,19.5c3.8,6.4,10.4,5.1,16,2c9.2-5.1,18.1-15.5,28.7-16.7c14.3-1.6,26.1,4.9,39.4,5.9c-0.7,7.5,6.4,13,7.6,20.2
	c1.6,8.2,1.1,16,3.1,24.1c1.8,7.3,10.4,37.3,8.6,44.5c-1.7,6.6-21.2,31.2-21.2,31.2s-4.8-4.4-12.6-6.4c-15-3.7-28.2-10.7-43.5-14.3
	c-16.1-3.7-94.9-18.1-94.9-18.1s-4.5-13.7-9.3-18.6c-5.1-5.2-11.7-8.6-18.4-10.4c-12.7-3.4-22.4-12.1-33.6-18.8
	c-4.9-3-14-4.8-15.7,3.1c-1.1,5.1,4.1,9.9,3.8,14.3L321.8,272.8c-18.1-19.3-47.6,1.3-21.9,21.9c14.8,11.9,78.5,66.4,161.5,137.8
	c-3.8-0.1-7.6-0.3-11.4,0.1c-4.1,7.2-1,13.3,6.6,15.2c3.2,0.8,8.2,0.4,9.5,4.1c1.1,3.4-2.5,6.1-1,10.4c0.8,2.3,4.1,6.4,6.2,7.5
	c3.1,1.7,8.5-0.3,11.2,2.4c2.7,2.7,0.3,7.2,2.8,10.4c2.8,3.7,5.5,2.7,9.7,3c-1,11.6,38.3,13.4,43.9,13.6
	c34.7,29.9,70.9,61.1,107,92.3c-9-0.7-36.1-5.6-42.4-4.5c-6.8,1.3-53.4,27.8-53.4,27.8c-18.4,11.4-42.2,15.8-63.7,19.3
	c-11,1.8-23.3,2.7-34.7,2.8c-11.7,0.3-20.2-3.5-30.8-6.9c2.4-4.2,7.5-5.9,9.7-11.2c2-4.5,2.4-9-0.3-13.4
	c1.3,7.8-12.4,15.7-18.5,14.4c-8.6-1.8-16-8.6-22.7-14c-6.8-5.4-14.3-10.9-19.3-18.1c-4.1-5.8-9.6-19.6-16.5-22.2
	c-2,2.4-3.4,6.5-3.8,9.5c-1.1,7.5,1,16,1.7,23.2c0.7,7.6,1.3,15.1,3,22.2c3,12.1,14.5,21.2,24.1,29.1c5.5,4.5,9.9,8.8,12.8,15.2
	c2.8,6.5,3.8,13.3,6.5,19.5c3.2,7.3,7.1,11.3,14.4,8.8c5.4-1.8,12.4-4.1,14.7-10.4c6.8,1.6,9.3,8.3,8.8,14.3
	c12.7-10.3-2.7-21-9.7-27.7c7.5-1,16.9,1.1,24,3.4c7.3,2.4,13.7,7.6,21.2,10.2c-0.3,0.1,2.3,5.1,2,5.5
	c-2.7,5.1-117.6,51.2-133.3,54.1c-13.6,2.4-28.5,9.6-42.4,8.6c-1.1-12.6-2.5-26-14.5-33.3c7.6,11,5.8,31.5-10.6,30.4
	c-11.6-0.8-20.5-8.8-27.2-18.1c-7.6-10.6-15.7-19.8-25.4-28.7c-4.9-4.5-10.6-7.6-16-11.2c-5.1-3.4-12-9-18.5-7.3
	c-0.8,9.5,1.6,15.8,3.8,24c1.3,4.7,13.6,57,40.4,72.7c5.9,3.4,11.3,12.6,12.8,19.1c10.6,43.5,29.2,38.4,31.6,37.6
	c7.2-2.8,10.3-7.9,15-14.1c4-5.2,10.3-14.7,16.2-15.7c6.2-1,16.1,2,21,6.1c2.7,2.1,4,4.5,5.2,7.5c1.4,3.2,0.8,7.8,2.7,10.3
	c7.8-15,0.6-28.8-14.1-34.2c5.6-7.8,21.7-7.3,30.5-8c11.9-0.8,24-2.7,35.7-4.7c23-4,43.9-7.1,66.6-10.9c14.5-2.4,64-12.8,64-12.8
	s13.7,11.2,18.9,17.9c18.4,23.7,20.3,57.6,41.9,78.9c94.4,92.8,142.4,79.8,157.7,79.2c-5.8-4.8-22-27.8-20.8-35.7
	c2.8-17.9,29.9-6.9,39.4-3c5.8,2.5,14.4,5.5,20.5,4.1c6.9-1.6,52.5-29.8,58.9-35.9c6.1,3.2,34.4-3.1,41.2-5.2
	c-11-1.7-23.3-15.2-28.7-25.1c-3.5-6.5-6.2-14.1-8.9-21c-2.4-5.9-1.3-23.4,2-24.3c10.9-3.4,22.2-3.5,33.5-2.1
	c48.7,42.2,86.3,74.7,103.9,89.9c-3.2,6.8-0.6,9.6-0.6,9.6l-1.3,12.8c0,0-10.3-2.5-15.4,3.8c-5.1,6.5,7.8,11.6,7.8,11.6l71.2,42.5
	c0,0-3,10.3,0,15.4c3,5.1,16.4,2.5,16.4,2.5s2.5,9,7.8,11.6c5.1,2.5,10.3,1.3,10.3,1.3s-2.5,7.8,0,12.8c2.5,5.1,10.3,0,10.3,0
	s18.1,15.4,28.4,33.5s128.8,109.4,170,135.1c41.2,25.7,63.1,25.8,63.1,25.8s-27.7-22.2-45.3-35.6c15,8.8,37.8,20.8,49.3,30.5
	c16.8,14.1,9-5.1,9-5.1s-9-14.1-36-36c-27-21.9-20.6-30.9,11.6-6.5s30.9,21.9,30.9,21.9l-14.1-28.4l25.7,11.6l-20.6-24.4l36,11.6
	l-41.2-38.7c0,0,30.9,20.6,42.5,28.4C1403,1132.7,1401.9,1117.1,1401.9,1117.1z M813.5,613.8c-10.3,2.5-64.4-21.9-64.4-21.9
	s-3.8-6.5,0-19.3c3.8-12.8,44.5-57.9,44.5-57.9h12.1c0,0,3.8,6.5,3.8,20.6c0,14.1,6.5,30.9,11.6,37.3c5.1,6.5,25.7,18.1,25.7,18.1
	S823.8,611.3,813.5,613.8z"/>
</svg>
